Coordinates
version=1
nRows=22
nColumns=34
inDegrees=no

Units are S.I. units (second, meters, Newtons, ...)
If the header above contains a line with 'inDegrees', this indicates whether rotational values are in degrees (yes) or radians (no).

endheader
time	pelvis_tilt	pelvis_list	pelvis_rotation	pelvis_tx	pelvis_ty	pelvis_tz	hip_flexion_r	hip_adduction_r	hip_rotation_r	knee_angle_r	ankle_angle_r	subtalar_angle_r	mtp_angle_r	hip_flexion_l	hip_adduction_l	hip_rotation_l	knee_angle_l	ankle_angle_l	subtalar_angle_l	mtp_angle_l	lumbar_extension	lumbar_bending	lumbar_rotation	arm_flex_r	arm_add_r	arm_rot_r	elbow_flex_r	pro_sup_r	arm_flex_l	arm_add_l	arm_rot_l	elbow_flex_l	pro_sup_l
1.43	-0.212569	-0.0114513	0.0196443	-0.231582	0.792692	-0.616719	1.10445	-0.119787	-0.0293186	1.63987	0.612319	-0.188126	-0.0154501	1.13558	-0.0468842	0.0297979	1.62596	0.671312	-0.0925065	0.00100025	-0.484191	-0.0251393	-0.0200976	1.07757	-0.791935	-0.0220453	1.92734	1.73822	1.26037	-0.530152	0.29423	1.64889	1.64278
1.44	-0.217861	-0.0137125	0.0270097	-0.226731	0.810771	-0.616755	1.07143	-0.11975	-0.0372282	1.58369	0.590755	-0.198011	-0.015438	1.10465	-0.0485199	0.0269142	1.57041	0.653293	-0.0878585	0.000993625	-0.463259	-0.0221777	-0.0322172	1.15874	-0.834008	0.00293057	1.95722	1.72738	1.34172	-0.550914	0.325236	1.67967	1.64641
1.45	-0.22215	-0.0155382	0.0339175	-0.221306	0.830018	-0.616838	1.03548	-0.120545	-0.0459239	1.5238	0.564032	-0.207727	-0.0154259	1.07027	-0.0508474	0.0225107	1.5108	0.630347	-0.0842422	0.000986983	-0.44181	-0.0197372	-0.0438694	1.24504	-0.872763	0.0365534	1.9789	1.72109	1.42021	-0.568871	0.356063	1.70914	1.65247
1.46	-0.224805	-0.0165808	0.0400161	-0.215225	0.850592	-0.616996	0.995747	-0.122278	-0.0554067	1.45951	0.530392	-0.216636	-0.0154138	1.03117	-0.0536228	0.0159921	1.44602	0.600784	-0.0817649	0.000980327	-0.420301	-0.0181925	-0.0543094	1.33327	-0.907482	0.0781013	1.9928	1.71997	1.49276	-0.583681	0.385963	1.73697	1.6608
1.47	-0.225216	-0.0165816	0.0448338	-0.20841	0.872642	-0.617259	0.951324	-0.124889	-0.0657564	1.38978	0.48778	-0.223779	-0.0154016	0.98605	-0.0565901	0.0067812	1.37461	0.562527	-0.0801994	0.000973655	-0.399183	-0.0178309	-0.0626309	1.41935	-0.937641	0.125785	1.99967	1.72385	1.55605	-0.595204	0.413902	1.76283	1.67134
1.48	-0.222883	-0.0153729	0.0478228	-0.200818	0.896308	-0.617648	0.901369	-0.128169	-0.0771382	1.31333	0.434001	-0.227901	-0.0153895	0.933724	-0.0594636	-0.00568532	1.29495	0.513197	-0.078938	0.000966967	-0.378842	-0.018848	-0.0679039	1.49862	-0.962891	0.176813	2.00042	1.73177	1.60682	-0.603534	0.438649	1.78638	1.68395
1.49	-0.217541	-0.0128556	0.0484402	-0.192462	0.921677	-0.618156	0.845342	-0.131838	-0.0897918	1.2288	0.366991	-0.227542	-0.0153773	0.873437	-0.0618827	-0.0219669	1.20551	0.45033	-0.077016	0.000960261	-0.359521	-0.0213889	-0.0693592	1.5662	-0.983009	0.227578	1.99607	1.742	1.64232	-0.609011	0.458939	1.8073	1.69826
1.5	-0.209288	-0.00898022	0.0462491	-0.183411	0.948744	-0.618744	0.783255	-0.135615	-0.104032	1.1351	0.285192	-0.221212	-0.0153652	0.805133	-0.0633938	-0.0425812	1.10514	0.37175	-0.0732156	0.000953535	-0.341226	-0.0255658	-0.0665474	1.61748	-0.997868	0.274015	1.98761	1.75232	1.66056	-0.61217	0.473651	1.82525	1.71358
1.51	-0.198671	-0.0037519	0.0410167	-0.173809	0.97739	-0.619337	0.715881	-0.13927	-0.120243	1.03172	0.188023	-0.207624	-0.015353	0.729722	-0.0634825	-0.0679119	0.993557	0.276099	-0.066241	0.000946789	-0.323652	-0.0314443	-0.0594384	1.64866	-1.00744	0.312083	1.97592	1.76036	1.66066	-0.613665	0.481975	1.8399	1.72898
1.52	-0.186685	0.00273975	0.0327868	-0.163866	1.00736	-0.61984	0.644882	-0.142634	-0.138842	0.919173	0.0763896	-0.185959	-0.0153409	0.649239	-0.0616687	-0.0980789	0.871742	0.163477	-0.054945	0.000940023	-0.306184	-0.0390022	-0.0484458	1.65726	-1.0118	0.338327	1.96181	1.76419	1.64287	-0.614191	0.483504	1.85101	1.74344
1.53	-0.174668	0.0102845	0.0219135	-0.153842	1.03826	-0.62015	0.572753	-0.14558	-0.160207	0.799227	-0.0468747	-0.156124	-0.0153287	0.566812	-0.0576458	-0.132807	0.742336	0.0360456	-0.0385818	0.000933235	-0.287996	-0.0480736	-0.0343861	1.64258	-1.01117	0.35038	1.94599	1.76295	1.6086	-0.614425	0.478245	1.85845	1.75629
1.54	-0.164062	0.0185184	0.00904967	-0.144008	1.06958	-0.620181	0.502577	-0.147997	-0.184556	0.675138	-0.176804	-0.118966	-0.0153166	0.486385	-0.0514228	-0.171338	0.609781	-0.101595	-0.0170441	0.000926424	-0.268294	-0.0583142	-0.0183864	1.60583	-1.00594	0.347307	1.92913	1.75718	1.56024	-0.614983	0.466565	1.86228	1.7673
1.55	-0.156018	0.0269522	-0.00490458	-0.134614	1.10073	-0.619888	0.43761	-0.149783	-0.211834	0.551548	-0.306506	-0.0763636	-0.0153044	0.412213	-0.0434235	-0.212424	0.480142	-0.242492	0.00895721	0.000919584	-0.246608	-0.069195	-0.00175932	1.5501	-0.996652	0.3297	1.91196	1.74874	1.5009	-0.616396	0.449101	1.8629	1.77656
1.56	-0.151199	0.0350927	-0.0188894	-0.125866	1.13115	-0.619278	0.380698	-0.150844	-0.241617	0.434128	-0.427922	-0.0311642	-0.0152922	0.348141	-0.0345068	-0.254404	0.360524	-0.378063	0.0378157	0.000912709	-0.223195	-0.0800154	0.0141385	1.47997	-0.984033	0.299504	1.89528	1.7403	1.43411	-0.619088	0.426649	1.86099	1.78443
1.57	-0.14951	0.0423882	-0.0318201	-0.117958	1.16039	-0.618455	0.333734	-0.151166	-0.273084	0.328896	-0.533156	0.0131005	-0.0152801	0.296901	-0.0258276	-0.295365	0.258093	-0.499481	0.0671074	0.0009058	-0.199262	-0.0900425	0.0280409	1.40084	-0.968933	0.259637	1.88	1.7344	1.36347	-0.623342	0.400049	1.85749	1.79137
1.58	-0.149985	0.0483395	-0.04271	-0.111136	1.18828	-0.617567	0.297295	-0.150839	-0.30507	0.241285	-0.61609	0.0527114	-0.0152679	0.259593	-0.0186262	-0.33333	0.178852	-0.599442	0.0938857	0.000898855	-0.176914	-0.0985995	0.0389055	1.31826	-0.952291	0.213458	1.8671	1.73281	1.2923	-0.629269	0.370094	1.85349	1.79783
1.59	-0.151012	0.0526041	-0.0507889	-0.105624	1.21495	-0.616774	0.27058	-0.150061	-0.336227	0.175196	-0.673712	0.0844571	-0.0152558	0.235544	-0.0139598	-0.366421	0.126476	-0.673714	0.115197	0.000891879	-0.158769	-0.105164	0.0460333	1.23715	-0.935062	0.164197	1.85752	1.73613	1.22328	-0.636766	0.337462	1.85007	1.80411
1.6	-0.15087	0.0550207	-0.0556071	-0.10145	1.24064	-0.616198	0.251844	-0.149119	-0.365201	0.132297	-0.706526	0.106347	-0.0152436	0.222706	-0.0124425	-0.392965	0.101578	-0.721773	0.128711	0.000884872	-0.147122	-0.109481	0.0491702	1.16095	-0.918143	0.114419	1.85213	1.74381	1.15813	-0.645481	0.302704	1.84816	1.81026
1.61	-0.148192	0.0556265	-0.0571108	-0.0985137	1.26554	-0.615899	0.23888	-0.148287	-0.390687	0.111799	-0.717934	0.118031	-0.0152314	0.218221	-0.0141496	-0.411597	0.101706	-0.746299	0.133247	0.000877837	-0.143378	-0.111572	0.0485745	1.09144	-0.902292	0.0658017	1.85162	1.75429	1.09752	-0.654814	0.266267	1.8484	1.81601
1.62	-0.14226	0.0546124	-0.0556626	-0.0966136	1.28971	-0.615865	0.229512	-0.147713	-0.411415	0.110769	-0.713004	0.120698	-0.0152193	0.219078	-0.018692	-0.421524	0.122102	-0.751935	0.129042	0.000870777	-0.147791	-0.111686	0.0449737	1.02886	-0.888006	0.0191918	1.85631	1.76562	1.04118	-0.663982	0.22855	1.85103	1.82085
1.63	-0.132974	0.0522778	-0.0519823	-0.0955012	1.31317	-0.616025	0.221888	-0.14736	-0.42622	0.124836	-0.697257	0.116534	-0.0152071	0.222593	-0.0254098	-0.422795	0.156839	-0.744045	0.11758	0.000863695	-0.159648	-0.110204	0.0393743	0.972486	-0.875356	-0.0250482	1.86603	1.7759	0.988264	-0.672192	0.189926	1.85587	1.82418
1.64	-0.120782	0.0489883	-0.0470089	-0.0949209	1.33586	-0.616279	0.214721	-0.147037	-0.434233	0.149029	-0.675754	0.108064	-0.0151949	0.226755	-0.0335462	-0.416391	0.199879	-0.727806	0.10112	0.000856594	-0.177451	-0.10758	0.0328736	0.921134	-0.863977	-0.0668071	1.88006	1.78369	0.937593	-0.678746	0.150787	1.8623	1.82561
